<?xml version="1.0" encoding="UTF-8"?>
<svg version="1.1" xmlns="http://www.w3.org/2000/svg" width="500" height="500">
<path d="M0 0 C165 0 330 0 500 0 C500 165 500 330 500 500 C335 500 170 500 0 500 C0 335 0 170 0 0 Z " fill="#FEFEFE" transform="translate(0,0)"/>
<path d="M0 0 C3.17440814 2.92629249 5.2534503 5.84345489 7.36328125 9.6015625 C7.99500244 10.71805176 8.62672363 11.83454102 9.27758789 12.98486328 C9.95590002 14.19823766 10.63420384 15.41161669 11.3125 16.625 C12.02454459 17.88698773 12.73736621 19.14853733 13.45092773 20.40966797 C14.55093263 22.35403665 15.65044428 24.29866659 16.74757385 26.24465942 C20.30991389 32.56279056 23.93064676 38.84659427 27.5625 45.125 C28.80344225 47.27340467 30.04432762 49.4218422 31.28515625 51.5703125 C31.89762207 52.63024414 32.51008789 53.69017578 33.14111328 54.78222656 C36.88978034 61.27125096 40.63308667 67.7633695 44.37744141 74.25488281 C47.48818339 79.64748314 50.60013327 85.03937822 53.71484375 90.4296875 C60.53502637 102.23629484 67.3232326 114.06027 74.07736206 125.90472412 C78.67394223 133.96263212 83.3132416 141.99417786 88 150 C93.0318069 158.59522672 98.00389072 167.2231213 102.9375 175.875 C109.96441776 188.19741583 117.03942537 200.49138453 124.13671875 212.7734375 C126.0203505 216.03524007 127.90122321 219.29861844 129.78125 222.5625 C130.40692871 223.64837402 131.03260742 224.73424805 131.67724609 225.85302734 C132.92271254 228.01461 134.16783619 230.17639021 135.41259766 232.33837891 C138.60302809 237.87245445 141.81296807 243.39425233 145.0546875 248.8984375 C146.03199829 250.56108643 146.03199829 250.56108643 147.02905273 252.25732422 C148.2773778 254.37837494 149.52934949 256.49728476 150.78540039 258.61376953 C151.3396167 259.55591309 151.89383301 260.49805664 152.46484375 261.46875 C152.955896 262.29826172 153.44694824 263.12777344 153.95288086 263.98242188 C155 266 155 266 155 268 C53.03 268 -48.94 268 -154 268 C-149.26186765 259.11600184 -144.54997919 250.34008836 -139.4375 241.6875 C-138.21557657 239.60580279 -136.99424294 237.52375929 -135.7734375 235.44140625 C-135.15178711 234.38195801 -134.53013672 233.32250977 -133.88964844 232.23095703 C-130.75753379 226.87560751 -127.65945014 221.50073869 -124.5625 216.125 C-123.93972168 215.04420166 -123.31694336 213.96340332 -122.67529297 212.84985352 C-121.41231067 210.65778641 -120.14945265 208.4656477 -118.88671875 206.2734375 C-117.0203162 203.0352484 -115.15126237 199.79860562 -113.28125 196.5625 C-106.46178895 184.75882839 -99.67532854 172.93720674 -92.92263794 161.09527588 C-87.76664555 152.05670572 -82.54679327 143.05722862 -77.28881836 134.07763672 C-72.80810607 126.41397748 -68.39484244 118.71305362 -64 111 C-59.04621177 102.30598314 -54.05621631 93.63502771 -49 85 C-43.96810214 76.40482718 -38.99610035 67.7768826 -34.0625 59.125 C-22.79523855 39.36654796 -11.40459336 19.67944385 0 0 Z " fill="#FEFEFE" transform="translate(248,51)"/>
<path d="M0 0 C0.66 0 1.32 0 2 0 C2.35078613 0.63164063 2.70157227 1.26328125 3.06298828 1.9140625 C10.11975136 14.60572062 17.25887841 27.23736913 24.60595703 39.76367188 C29.12600215 47.47794904 33.57467143 55.23121066 38 63 C42.95349391 71.69418067 47.94369465 80.36503104 53 89 C58.4035646 98.22800529 63.72652361 107.4999467 69.02050781 116.79101562 C73.63502852 124.88744218 78.29103794 132.95801457 83 141 C88.0318979 149.5951729 93.00389124 158.22312222 97.9375 166.875 C104.96603507 179.20025196 112.04240434 191.49722067 119.14111328 203.78222656 C122.26324605 209.18670645 125.38141204 214.59347412 128.5 220 C129.74998122 222.1666775 130.99998121 224.33334417 132.25 226.5 C134.75 230.83333333 137.25 235.16666667 139.75 239.5 C140.6793335 241.11068359 140.6793335 241.11068359 141.62744141 242.75390625 C142.86967962 244.90733509 144.11154537 247.06097884 145.35302734 249.21484375 C148.25129803 254.24206755 151.15298072 259.26721002 154.06854248 264.28442383 C155.09415628 266.04975211 156.11854664 267.81578471 157.14257812 269.58203125 C158.42271466 271.7891632 159.70510666 273.99498923 160.99023438 276.19921875 C161.86518555 277.70935547 161.86518555 277.70935547 162.7578125 279.25 C163.51795654 280.55710937 163.51795654 280.55710937 164.29345703 281.890625 C166.65507754 286.1935719 168.80488709 290.60977417 171 295 C58.8 295 -53.4 295 -169 295 C-167.54877547 291.37193866 -166.12455815 288.25771216 -164.234375 284.88671875 C-163.68152832 283.89889404 -163.12868164 282.91106934 -162.55908203 281.89331055 C-161.66358643 280.30643433 -161.66358643 280.30643433 -160.75 278.6875 C-160.12593262 277.57737549 -159.50186523 276.46725098 -158.85888672 275.32348633 C-154.11549721 266.91269335 -149.27537264 258.56056901 -144.39135742 250.23071289 C-139.89608779 242.55842904 -135.4663109 234.85001331 -131.0625 227.125 C-124.03438099 214.79951217 -116.95759399 202.50277644 -109.85888672 190.21777344 C-106.73675395 184.81329355 -103.61858796 179.40652588 -100.5 174 C-99.25001878 171.8333225 -98.00001879 169.66665583 -96.75 167.5 C-96.13125 166.4275 -95.5125 165.355 -94.875 164.25 C-73 126.33333333 -51.125 88.41666667 -29.25 50.5 C-28.6302832 49.42580811 -28.01056641 48.35161621 -27.37207031 47.24487305 C-26.13189239 45.09526366 -24.89165873 42.94568642 -23.65136719 40.79614258 C-20.7264977 35.72690788 -17.80219167 30.65735064 -14.87988281 25.5866394 C-13.50193062 23.19573403 -12.12365828 20.80501328 -10.74536133 18.41430664 C-9.77459018 16.73016037 -8.80428126 15.04574769 -7.83398438 13.36132812 C-7.24423828 12.33845703 -6.65449219 11.31558594 -6.046875 10.26171875 C-5.52963867 9.36412842 -5.01240234 8.46653809 -4.47949219 7.54174805 C-3.99125977 6.70297119 -3.50302734 5.86419434 -3 5 C-2.4834082 4.06647705 -1.96681641 3.1329541 -1.43457031 2.17114258 C-0.96116211 1.45466553 -0.48775391 0.73818848 0 0 Z M0 18 C-0.60920288 19.06806885 -0.60920288 19.06806885 -1.23071289 20.15771484 C-10.49191534 36.39045455 -19.7907986 52.60059805 -29.14111328 68.78222656 C-32.26324603 74.18670641 -35.38145881 79.59344718 -38.5 85 C-42.23636915 91.47766885 -45.97348347 97.95489983 -49.71484375 104.4296875 C-56.53502637 116.23629484 -63.3232326 128.06027 -70.07736206 139.90472412 C-75.23335445 148.94329428 -80.45320673 157.94277138 -85.71118164 166.92236328 C-90.19189393 174.58602252 -94.60515756 182.28694638 -99 190 C-103.95378823 198.69401686 -108.94378369 207.36497229 -114 216 C-119.71230111 225.75739506 -125.33934355 235.56190975 -130.93798828 245.38476562 C-134.36920286 251.40340891 -137.81054828 257.41582782 -141.27734375 263.4140625 C-141.62387497 264.01370819 -141.97040619 264.61335388 -142.32743835 265.23117065 C-143.98459848 268.09773271 -145.64358338 270.96321541 -147.30444336 273.82763672 C-147.89233643 274.8435791 -148.48022949 275.85952148 -149.0859375 276.90625 C-149.6020459 277.79634766 -150.1181543 278.68644531 -150.64990234 279.60351562 C-151.83128741 281.70052753 -152.92360513 283.84721025 -154 286 C-52.03 286 49.94 286 155 286 C153.54877547 282.37193866 152.12455815 279.25771216 150.234375 275.88671875 C149.40498413 274.40473999 149.40498413 274.40473999 148.55883789 272.89282227 C147.96192139 271.83506592 147.36500488 270.77730957 146.75 269.6875 C145.81498657 268.02448853 145.81498657 268.02448853 144.86108398 266.32788086 C139.51984179 256.85806448 134.05564527 247.46209018 128.55859375 238.08203125 C119.22727027 222.15571446 110.06668894 206.13030035 100.9229126 190.0958252 C96.32624562 182.03773079 91.686862 174.00599909 87 166 C81.9681931 157.40477328 76.99610928 148.7768787 72.0625 140.125 C65.03396493 127.79974804 57.95759566 115.50277933 50.85888672 103.21777344 C47.73675395 97.81329355 44.61858796 92.40652588 41.5 87 C40.25001878 84.8333225 39.00001879 82.66665583 37.75 80.5 C30.25 67.5 30.25 67.5 28.37231445 64.24462891 C27.13209409 62.09538798 25.89105646 59.94661844 24.64916992 57.79833984 C21.71929942 52.72781031 18.79795439 47.65290532 15.90567017 42.56085205 C14.54046335 40.15850054 13.17056329 37.75884109 11.80029297 35.359375 C10.83623142 33.66666782 9.87896467 31.97009646 8.921875 30.2734375 C8.33535156 29.24734375 7.74882812 28.22125 7.14453125 27.1640625 C6.63253174 26.26123535 6.12053223 25.3584082 5.59301758 24.42822266 C3.96049593 21.93978429 2.1742396 20.02206931 0 18 Z " fill="#040404" transform="translate(248,33)"/>
<path d="M0 0 C24.77189409 0 24.77189409 0 31.02734375 5.91796875 C33.00189783 10.14462467 32.80910821 14.47663916 32 19 C30.4110869 21.82797377 28.58818511 24.03539317 26 26 C25.34 26 24.68 26 24 26 C24.39380859 26.60062256 24.78761719 27.20124512 25.19335938 27.82006836 C26.96459403 30.52434541 28.73233986 33.23088526 30.5 35.9375 C31.12003906 36.88302734 31.74007813 37.82855469 32.37890625 38.80273438 C32.96542969 39.70185547 33.55195313 40.60097656 34.15625 41.52734375 C34.70087891 42.35999756 35.24550781 43.19265137 35.80664062 44.05053711 C37 46 37 46 37 47 C32.98265 48.09980684 29.97692509 48.34726446 26 47 C21.98307394 42.88777475 16 34.93184505 16 29 C14.02 29 12.04 29 10 29 C10 34.94 10 40.88 10 47 C6.7 47 3.4 47 0 47 C0 31.49 0 15.98 0 0 Z " fill="#050505" transform="translate(384,354)"/>
<path d="M0 0 C23.64285714 0 23.64285714 0 29.9375 5.625 C32.57333746 9.93818857 32.84790549 13.06756055 32 18 C30.52878933 21.22265194 28.7395097 23.73692677 26 26 C25.34 26 24.68 26 24 26 C24.60328125 26.92941406 25.2065625 27.85882813 25.828125 28.81640625 C26.63551332 30.06504167 27.44279952 31.31374314 28.25 32.5625 C28.64574219 33.17158203 29.04148438 33.78066406 29.44921875 34.40820312 C32.1110175 38.53180938 34.59811753 42.71958101 37 47 C32.95515564 48.19702357 30.00627762 48.42621502 26 47 C23.02031393 43.76091948 20.90138601 39.97816223 18.79370117 36.13500977 C18.36935791 35.36987061 17.94501465 34.60473145 17.5078125 33.81640625 C17.14316895 33.10943604 16.77852539 32.40246582 16.40283203 31.67407227 C14.81111907 29.42001785 14.81111907 29.42001785 10 29 C10 34.94 10 40.88 10 47 C6.7 47 3.4 47 0 47 C0 31.49 0 15.98 0 0 Z " fill="#050505" transform="translate(147,354)"/>
<path d="M0 0 C20 0 20 0 29 4 C32.12662311 7.12662311 32.23934682 10.11470653 32.4375 14.375 C32.27007976 19.77612264 31.35890202 22.7571764 28 27 C22.60783505 31.17892784 16.51036131 30.21701204 10 30 C10 35.61 10 41.22 10 47 C6.7 47 3.4 47 0 47 C0 31.49 0 15.98 0 0 Z " fill="#060606" transform="translate(85,354)"/>
<path d="M0 0 C11.22 0 22.44 0 34 0 C34 7.87402877 34 7.87402877 31.47265625 11.3828125 C30.9314917 12.15197998 30.39032715 12.92114746 29.83276367 13.71362305 C29.24857666 14.50937744 28.66438965 15.30513184 28.0625 16.125 C27.47509033 16.95233643 26.88768066 17.77967285 26.2824707 18.63208008 C25.09530698 20.30330483 23.90191658 21.97012498 22.70214844 23.63232422 C20.75351499 26.34285882 18.85147267 29.08267005 16.96142578 31.83422852 C15.31569487 34.22839167 13.65661323 36.61335382 12 39 C19.26 39 26.52 39 34 39 C34 41.64 34 44.28 34 47 C22.78 47 11.56 47 0 47 C0 39.12679504 0 39.12679504 2.5625 35.58203125 C3.1088208 34.80770752 3.6551416 34.03338379 4.21801758 33.2355957 C4.80607178 32.43597412 5.39412598 31.63635254 6 30.8125 C7.19196126 29.13581109 8.38336758 27.45872752 9.57421875 25.78125 C10.15864746 24.96914063 10.74307617 24.15703125 11.34521484 23.3203125 C13.57335823 20.19604653 15.69711684 17.014161 17.8125 13.8125 C18.864375 12.224375 19.91625 10.63625 21 9 C14.07 9 7.14 9 0 9 C0 6.03 0 3.06 0 0 Z " fill="#090909" transform="translate(263,354)"/>
<path d="M0 0 C1.27746094 -0.00773437 2.55492187 -0.01546875 3.87109375 -0.0234375 C7.74963411 0.3951986 10.21779219 1.42090486 13.5625 3.375 C12.5725 5.685 11.5825 7.995 10.5625 10.375 C9.758125 10.21 8.95375 10.045 8.125 9.875 C3.93274562 9.28661342 -0.20928559 9.07234886 -4.4375 9.375 C-5.73383621 10.44145115 -5.73383621 10.44145115 -5.5 12.9375 C-5.479375 13.741875 -5.45875 14.54625 -5.4375 15.375 C-4.48488281 15.88289063 -3.53226563 16.39078125 -2.55078125 16.9140625 C-1.28349624 17.60872243 -0.01658906 18.30407194 1.25 19 C1.87583984 19.33128906 2.50167969 19.66257812 3.14648438 20.00390625 C7.68340482 22.52177833 10.60425442 25.07969427 13.5625 29.375 C14.60975701 33.57091789 14.02148486 37.31933483 12.3125 41.25 C9.68585292 44.43950003 7.48530404 46.06739865 3.5625 47.375 C0.90402131 47.49726159 -1.71673638 47.56012018 -4.375 47.5625 C-5.09107422 47.57474609 -5.80714844 47.58699219 -6.54492188 47.59960938 C-10.65810547 47.61104547 -12.66031567 47.26359216 -16.4375 45.375 C-16.4375 42.405 -16.4375 39.435 -16.4375 36.375 C-15.509375 36.705 -14.58125 37.035 -13.625 37.375 C-8.66538966 38.81094468 -3.55874687 38.75599241 1.5625 38.375 C2.77865968 37.33033891 2.77865968 37.33033891 3.125 35.125 C2.85493049 32.3395472 2.85493049 32.3395472 0.98828125 31.07421875 C-1.12224796 29.77574078 -3.26357544 28.56398762 -5.4375 27.375 C-10.2575643 24.40880658 -13.86754289 21.51491423 -16.4375 16.375 C-16.83887875 12.20066105 -16.69944303 9.87948287 -14.75 6.125 C-10.35952401 0.90389342 -6.74890327 -0.04077887 0 0 Z " fill="#070707" transform="translate(224.4375,353.625)"/>
<path d="M0 0 C11.55 0 23.1 0 35 0 C35 2.97 35 5.94 35 9 C31.04 9 27.08 9 23 9 C23 21.54 23 34.08 23 47 C19.7 47 16.4 47 13 47 C13 34.13 13 21.26 13 8 C8.71 8 4.42 8 0 8 C0 5.36 0 2.72 0 0 Z " fill="#0A0A0A" transform="translate(321,354)"/>
<path d="M0 0 C8.90625 0 8.90625 0 12 3 C12.66361877 5.79418431 12.61259626 8.19955997 12 11 C10.5 13 10.5 13 8 14 C5.27951115 14.22324622 2.74034764 14.13701738 0 14 C0 9.38 0 4.76 0 0 Z " fill="#F6F6F6" transform="translate(95,362)"/>
<path d="M0 0 C7.15789474 -0.35789474 7.15789474 -0.35789474 10.5 1.0625 C12 3 12 3 12.5 6.5 C12 10 12 10 10.5 11.9375 C6.87802345 13.47684003 3.92037077 13.19601854 0 13 C0 8.71 0 4.42 0 0 Z " fill="#F3F3F3" transform="translate(394,362)"/>
<path d="M0 0 C8.625 0.75 8.625 0.75 12 3 C12.4375 6.4375 12.4375 6.4375 12 10 C10.5 11.9375 10.5 11.9375 8 13 C5.27940731 13.22844671 2.7408346 13.13704173 0 13 C0 8.71 0 4.42 0 0 Z " fill="#F4F4F4" transform="translate(157,362)"/>
</svg>
